<?xml version="1.0" encoding="UTF-8"?>
<!-- Generator: Adobe Illustrator 19.1.0, SVG Export Plug-In . SVG Version: 6.00 Build 0)  -->
<svg version="1.1" id="Layer_1" xmlns="http://www.w3.org/2000/svg" xmlns:xlink="http://www.w3.org/1999/xlink" x="0px" y="0px" viewBox="-235 383.6 139.7 26.4" style="enable-background:new -235 383.6 139.7 26.4;" xml:space="preserve">
<style type="text/css">
	.st0{fill:#FFFFFF;}
	.st1{fill:#E42B12;}
</style>
<g>
	<g>
		<g>
			<g>
				<g>
					<g>
						<g>
							<g>
								<g>
									<path class="st0" d="M-215.7,402.4c0,1.2-0.3,2.1-0.9,2.8c-0.6,0.7-1.4,1-2.4,1s-1.8-0.3-2.4-1c-0.6-0.7-1-1.6-1-2.8v-10.5           h-0.4l0,0h-5.2v-0.8c0-1.2,0.3-2.2,0.9-2.8c0.6-0.7,1.2-1,2.2-1s1.7,0.2,2.4,0.8l2.1-2c-1.3-1.6-2.5-2.3-5.5-2.3           c-1.4,0-2.7,0.5-3.9,1.5c-0.9,1-1.5,2.4-1.6,4.3l0,0v2.3h-3.6v2.7h3.5v14.8h3.5v-10.9l0,0v-3.9h2.2v9c0,2,0.6,3.5,1.9,4.5           c1.1,1,2.4,1.6,3.8,1.6c1.8,0,3.3-0.7,4.4-2.1h0.1v1.9h3.4v-17.6h-3.4L-215.7,402.4L-215.7,402.4z"/>
									<path class="st0" d="M-202.5,391.7c-1.8,0-3.3,0.7-4.4,2.1h-0.1v-1.9h-3.4v17.5h3.4V399c0-1.2,0.3-2.2,1-2.8           c0.6-0.7,1.4-1,2.4-1s1.8,0.3,2.4,1c0.6,0.6,0.9,1.6,0.9,2.8v10.5h3.4v-11.7c-0.1-2-0.7-3.5-1.8-4.6           C-199.8,392.2-201.1,391.7-202.5,391.7z"/>
								</g>
								<path class="st0" d="M-187.4,391.7c-1.8,0-3.3,0.7-4.4,2.1h-0.1v-1.9h-3.4v17.5h3.4V399c0-1.2,0.3-2.2,1-2.8          c0.6-0.7,1.4-1,2.4-1s1.8,0.3,2.4,1c0.6,0.6,0.9,1.6,0.9,2.8v10.5h3.4v-11.7c-0.1-2-0.7-3.5-1.8-4.6          C-184.7,392.2-186,391.7-187.4,391.7z"/>
							</g>
							<path class="st0" d="M-173.3,391.7c-0.8,0-1.6,0.2-2.5,0.5c-0.8,0.3-1.6,0.8-2.2,1.4c-0.7,0.7-1.2,1.6-1.6,2.8         c-0.4,1.1-0.6,2.6-0.6,4.3c0,1.8,0.2,3.3,0.7,4.4c0.4,1.2,1,2.1,1.8,2.7c0.4,0.3,0.8,0.6,1.2,0.8c0.4,0.2,0.8,0.4,1.2,0.6         c0.9,0.3,1.7,0.4,2.6,0.4c2.3,0,4.4-0.9,6.1-2.8l-2.5-2.2c-1.1,1.1-2.3,1.7-3.7,1.7c-1.2,0-2.1-0.4-2.9-1.1         c-0.8-0.7-1.2-1.8-1.2-3.2h10.6v-2.9c0-2.3-0.7-4.1-2.1-5.4C-169.7,392.4-171.4,391.7-173.3,391.7z M-176.9,399.1         c0.1-1.4,0.4-2.4,1.1-3.1c0.7-0.7,1.5-1,2.5-1s1.9,0.3,2.5,1c0.7,0.7,1,1.7,1.1,3.1H-176.9z"/>
						</g>
						<path class="st0" d="M-161.5,404.9v-20.1h-3.4v20.4c0,1.5,0.4,2.6,1.3,3.3c0.8,0.6,1.8,1,3.1,1h0.3v-3.3        C-161.1,406.1-161.5,405.7-161.5,404.9z"/>
					</g>
					<path class="st0" d="M-147.1,394c-1-1.5-2.5-2.2-4.6-2.3c-0.9,0-1.7,0.2-2.3,0.6c-0.7,0.4-1.4,0.9-2,1.5v-9h-3.4v24.6h3.4v-1.8       c1.1,1.3,2.5,1.8,4.3,1.8c1.1,0,2,0,2.8-0.5c0.8-0.4,1.4-0.9,1.8-1.6c0.5-0.6,0.8-1.3,1-2.2s0.2-2.4,0.2-4.5s-0.1-3.6-0.2-4.5       C-146.3,395.3-146.7,394.6-147.1,394z M-149.4,402.6c-0.1,0.7-0.2,1.3-0.4,1.8s-0.5,0.9-1,1.3c-0.5,0.3-1.1,0.5-1.9,0.5       c-0.8,0-1.4-0.2-1.8-0.5c-0.5-0.3-0.8-0.8-1-1.3c-0.2-0.5-0.3-1.1-0.4-1.8c-0.1-0.6-0.1-1.3-0.1-1.9c0-0.7,0-1.3,0.1-1.9       c0.1-0.6,0.2-1.2,0.4-1.7c0.2-0.5,0.6-1,1-1.3c0.4-0.3,1.1-0.5,1.8-0.5c0.8,0,1.4,0.1,1.9,0.4c0.5,0.3,0.8,0.7,1,1.3       c0.2,0.5,0.4,1.1,0.4,1.7c0,0.7,0,1.3,0,2.1C-149.3,401.3-149.3,402-149.4,402.6z"/>
				</g>
				<path class="st0" d="M-133.7,393c-1.3-0.9-3-1.3-5.1-1.2c-2.5,0-4.4,0.8-5.7,2.6l2.7,2.1c0.3-0.5,0.7-0.9,1.2-1.1      c0.5-0.2,1.2-0.3,2-0.3c2.3,0,3.5,0.7,3.5,2.3v1.9h-4.7c-1.9-0.2-3.2,0.3-4.2,1.3c-0.9,1-1.4,2.2-1.4,3.7s0.5,2.8,1.6,3.8      c1,1,2.5,1.5,4.4,1.6c1.2,0,2.1-0.1,2.7-0.4c0.7-0.3,1.2-0.7,1.5-1.3h0.1v1.6h3.4v-12C-131.7,395.3-132.4,393.8-133.7,393z       M-135.1,403.3c0,1.3-0.3,2.2-0.8,2.5c-0.6,0.4-1.6,0.5-3,0.5c-1.1,0-2-0.2-2.4-0.7c-0.5-0.4-0.8-0.9-0.8-1.5c0-1.4,1-2.1,3-2.1      h4.1v1.3H-135.1z"/>
			</g>
			<path class="st0" d="M-123.2,395.2c1.4,0,2.6,0.7,3.5,1.8l2.5-2.3c-0.7-0.9-1.6-1.7-2.6-2.2s-2.2-0.8-3.5-0.8     c-2,0-3.8,0.7-5.3,2.1c-1.6,1.4-2.4,3.7-2.4,6.9c0,3.2,0.8,5.4,2.4,6.8c1.5,1.4,3.3,2.1,5.3,2.1c1.3,0,2.5-0.3,3.5-0.9     c1-0.5,1.9-1.3,2.6-2.1l-2.5-2.3c-0.9,1.2-2,1.8-3.5,1.8c-2.9,0.1-4.4-1.8-4.4-5.4C-127.6,397-126.1,395.2-123.2,395.2z"/>
		</g>
		<polygon class="st0" points="-108.4,398.8 -102.6,391.9 -106.7,391.9 -113.2,400.1 -113.3,400.1 -113.3,384.8 -116.7,384.8     -116.7,409.5 -113.3,409.5 -113.3,404.4 -110.6,401.3 -106.1,409.5 -101.8,409.5   "/>
	</g>
	<polygon class="st1" points="-95.3,401.6 -98.9,401.6 -100.6,401.6 -104.2,401.6 -99.7,409.4 -99.7,409.4 -99.7,409.4  "/>
</g>
</svg>