<?xml version="1.0" encoding="utf-8"?>
<!-- Generator: Adobe Illustrator 19.1.0, SVG Export Plug-In . SVG Version: 6.00 Build 0)  -->
<svg version="1.1" id="Layer_1" xmlns="http://www.w3.org/2000/svg" xmlns:xlink="http://www.w3.org/1999/xlink" x="0px" y="0px"
	 viewBox="-235 383.6 139.7 26.4" style="enable-background:new -235 383.6 139.7 26.4;" xml:space="preserve">
<style type="text/css">
	.st0{fill:#FFFFFF;}
	.st1{fill:#E42B12;}
</style>
<g>
	<g>
		<g>
			<g>
				<g>
					<g>
						<g>
							<g>
								<g>
									<path class="st0" d="M-220.8,397c0,0.9-0.2,1.5-0.7,2s-1,0.7-1.7,0.7c-0.7,0-1.3-0.2-1.7-0.7c-0.4-0.5-0.7-1.2-0.7-2v-7.6
										h-0.3l0,0h-3.8v-0.6c0-0.9,0.2-1.6,0.7-2c0.4-0.5,0.9-0.7,1.6-0.7c0.7,0,1.2,0.1,1.7,0.6l1.5-1.4c-0.9-1.2-1.8-1.7-4-1.7
										c-1,0-2,0.4-2.8,1.1c-0.7,0.7-1.1,1.7-1.2,3.1l0,0v1.7h-2.6v2h2.5v10.7h2.5v-7.9l0,0v-2.8h1.6v6.5c0,1.4,0.4,2.5,1.4,3.3
										c0.8,0.7,1.7,1.2,2.7,1.2c1.3,0,2.4-0.5,3.2-1.5h0.1v1.4h2.5v-12.7h-2.5L-220.8,397L-220.8,397z"/>
									<path class="st0" d="M-211.2,389.3c-1.3,0-2.4,0.5-3.2,1.5h-0.1v-1.4h-2.5v12.6h2.5v-7.5c0-0.9,0.2-1.6,0.7-2
										c0.4-0.5,1-0.7,1.7-0.7c0.7,0,1.3,0.2,1.7,0.7c0.4,0.4,0.7,1.2,0.7,2v7.6h2.5v-8.5c-0.1-1.4-0.5-2.5-1.3-3.3
										C-209.3,389.7-210.2,389.3-211.2,389.3z"/>
								</g>
								<path class="st0" d="M-200.3,389.3c-1.3,0-2.4,0.5-3.2,1.5h-0.1v-1.4h-2.5v12.6h2.5v-7.5c0-0.9,0.2-1.6,0.7-2
									c0.4-0.5,1-0.7,1.7-0.7c0.7,0,1.3,0.2,1.7,0.7c0.4,0.4,0.7,1.2,0.7,2v7.6h2.5v-8.5c-0.1-1.4-0.5-2.5-1.3-3.3
									C-198.4,389.7-199.3,389.3-200.3,389.3z"/>
							</g>
							<path class="st0" d="M-190.1,389.3c-0.6,0-1.2,0.1-1.8,0.4c-0.6,0.2-1.2,0.6-1.6,1c-0.5,0.5-0.9,1.2-1.2,2
								c-0.3,0.8-0.4,1.9-0.4,3.1c0,1.3,0.1,2.4,0.5,3.2c0.3,0.9,0.7,1.5,1.3,2c0.3,0.2,0.6,0.4,0.9,0.6c0.3,0.1,0.6,0.3,0.9,0.4
								c0.7,0.2,1.2,0.3,1.9,0.3c1.7,0,3.2-0.7,4.4-2l-1.8-1.6c-0.8,0.8-1.7,1.2-2.7,1.2c-0.9,0-1.5-0.3-2.1-0.8s-0.9-1.3-0.9-2.3
								h7.7v-2.1c0-1.7-0.5-3-1.5-3.9C-187.5,389.8-188.8,389.3-190.1,389.3z M-192.7,394.7c0.1-1,0.3-1.7,0.8-2.2
								c0.5-0.5,1.1-0.7,1.8-0.7c0.7,0,1.4,0.2,1.8,0.7c0.5,0.5,0.7,1.2,0.8,2.2H-192.7z"/>
						</g>
						<path class="st0" d="M-181.6,398.9v-14.5h-2.5v14.7c0,1.1,0.3,1.9,0.9,2.4c0.6,0.4,1.3,0.7,2.2,0.7h0.2v-2.4
							C-181.3,399.7-181.6,399.4-181.6,398.9z"/>
					</g>
					<path class="st0" d="M-171.2,391c-0.7-1.1-1.8-1.6-3.3-1.7c-0.7,0-1.2,0.1-1.7,0.4c-0.5,0.3-1,0.7-1.4,1.1v-6.5h-2.5v17.8h2.5
						v-1.3c0.8,0.9,1.8,1.3,3.1,1.3c0.8,0,1.4,0,2-0.4c0.6-0.3,1-0.7,1.3-1.2c0.4-0.4,0.6-0.9,0.7-1.6s0.1-1.7,0.1-3.3
						c0-1.5-0.1-2.6-0.1-3.3C-170.6,391.9-170.9,391.4-171.2,391z M-172.9,397.2c-0.1,0.5-0.1,0.9-0.3,1.3c-0.1,0.4-0.4,0.7-0.7,0.9
						c-0.4,0.2-0.8,0.4-1.4,0.4c-0.6,0-1-0.1-1.3-0.4c-0.4-0.2-0.6-0.6-0.7-0.9c-0.1-0.4-0.2-0.8-0.3-1.3c-0.1-0.4-0.1-0.9-0.1-1.4
						c0-0.5,0-0.9,0.1-1.4s0.1-0.9,0.3-1.2c0.1-0.4,0.4-0.7,0.7-0.9c0.3-0.2,0.8-0.4,1.3-0.4c0.6,0,1,0.1,1.4,0.3
						c0.4,0.2,0.6,0.5,0.7,0.9c0.1,0.4,0.3,0.8,0.3,1.2c0,0.5,0,0.9,0,1.5C-172.8,396.3-172.8,396.8-172.9,397.2z"/>
				</g>
				<path class="st0" d="M-161.5,390.3c-0.9-0.7-2.2-0.9-3.7-0.9c-1.8,0-3.2,0.6-4.1,1.9l2,1.5c0.2-0.4,0.5-0.7,0.9-0.8
					c0.4-0.1,0.9-0.2,1.4-0.2c1.7,0,2.5,0.5,2.5,1.7v1.4h-3.4c-1.4-0.1-2.3,0.2-3,0.9c-0.7,0.7-1,1.6-1,2.7c0,1.1,0.4,2,1.2,2.7
					c0.7,0.7,1.8,1.1,3.2,1.2c0.9,0,1.5-0.1,2-0.3c0.5-0.2,0.9-0.5,1.1-0.9h0.1v1.2h2.5v-8.7C-160.1,391.9-160.6,390.8-161.5,390.3z
					 M-162.5,397.7c0,0.9-0.2,1.6-0.6,1.8c-0.4,0.3-1.2,0.4-2.2,0.4c-0.8,0-1.4-0.1-1.7-0.5c-0.4-0.3-0.6-0.7-0.6-1.1
					c0-1,0.7-1.5,2.2-1.5h3L-162.5,397.7L-162.5,397.7L-162.5,397.7z"/>
			</g>
			<path class="st0" d="M-153.9,391.8c1,0,1.9,0.5,2.5,1.3l1.8-1.7c-0.5-0.7-1.2-1.2-1.9-1.6c-0.7-0.4-1.6-0.6-2.5-0.6
				c-1.4,0-2.7,0.5-3.8,1.5c-1.2,1-1.7,2.7-1.7,5s0.6,3.9,1.7,4.9c1.1,1,2.4,1.5,3.8,1.5c0.9,0,1.8-0.2,2.5-0.7
				c0.7-0.4,1.4-0.9,1.9-1.5l-1.8-1.7c-0.7,0.9-1.4,1.3-2.5,1.3c-2.1,0.1-3.2-1.3-3.2-3.9C-157.1,393.1-156,391.8-153.9,391.8z"/>
		</g>
		<polygon class="st0" points="-143.2,394.4 -139.1,389.5 -142,389.5 -146.7,395.4 -146.8,395.4 -146.8,384.3 -149.2,384.3 
			-149.2,402.2 -146.8,402.2 -146.8,398.5 -144.8,396.3 -141.6,402.2 -138.5,402.2 		"/>
	</g>
	<polygon class="st1" points="-133.8,396.5 -136.4,396.5 -137.6,396.5 -140.2,396.5 -137,402.1 -137,402.1 -137,402.1 	"/>
</g>
<g>
	<path class="st1" d="M-195.8,404.9c-0.5,0-0.9,0.2-1.2,0.6c-0.3,0.4-0.4,0.9-0.4,1.6c0,0.7,0.1,1.2,0.4,1.6
		c0.3,0.4,0.7,0.5,1.2,0.5c0.2,0,0.5,0,0.7-0.1c0.2,0,0.4-0.1,0.7-0.2v0.8c-0.4,0.2-0.9,0.3-1.5,0.3c-0.8,0-1.4-0.3-1.9-0.8
		s-0.7-1.2-0.7-2.2c0-0.6,0.1-1.1,0.3-1.6c0.2-0.4,0.5-0.8,0.9-1c0.4-0.2,0.9-0.4,1.4-0.4c0.6,0,1.1,0.1,1.6,0.4l-0.3,0.8
		c-0.2-0.1-0.4-0.2-0.6-0.2C-195.4,404.9-195.6,404.9-195.8,404.9z"/>
	<path class="st1" d="M-189.5,407.7c0,0.7-0.2,1.3-0.5,1.7c-0.4,0.4-0.8,0.6-1.5,0.6c-0.4,0-0.7-0.1-1-0.3c-0.3-0.2-0.5-0.4-0.7-0.8
		s-0.2-0.7-0.2-1.2c0-0.7,0.2-1.3,0.5-1.7c0.3-0.4,0.8-0.6,1.5-0.6c0.6,0,1.1,0.2,1.4,0.6C-189.7,406.5-189.5,407-189.5,407.7z
		 M-192.5,407.7c0,1,0.4,1.5,1.1,1.5c0.7,0,1.1-0.5,1.1-1.5c0-1-0.4-1.5-1.1-1.5c-0.4,0-0.6,0.1-0.8,0.4
		C-192.5,406.9-192.5,407.3-192.5,407.7z"/>
	<path class="st1" d="M-184.6,409.9h-0.9v-2.7c0-0.3-0.1-0.6-0.2-0.8c-0.1-0.2-0.3-0.2-0.6-0.2c-0.4,0-0.7,0.1-0.8,0.3
		c-0.2,0.2-0.3,0.6-0.3,1.2v2.2h-0.9v-4.4h0.7l0.1,0.6h0c0.1-0.2,0.3-0.4,0.5-0.5c0.2-0.1,0.5-0.2,0.8-0.2c1,0,1.5,0.5,1.5,1.6
		V409.9z"/>
	<path class="st1" d="M-181.7,409.3c0.2,0,0.4,0,0.7-0.1v0.7c-0.1,0-0.2,0.1-0.4,0.1c-0.2,0-0.3,0-0.5,0c-0.8,0-1.3-0.5-1.3-1.4
		v-2.3h-0.6v-0.4l0.6-0.3l0.3-0.9h0.5v1h1.2v0.7h-1.2v2.3c0,0.2,0.1,0.4,0.2,0.5C-182,409.2-181.9,409.3-181.7,409.3z"/>
	<path class="st1" d="M-178.2,410c-0.7,0-1.2-0.2-1.5-0.6s-0.5-0.9-0.5-1.6c0-0.7,0.2-1.3,0.5-1.7c0.3-0.4,0.8-0.6,1.4-0.6
		c0.6,0,1,0.2,1.3,0.5c0.3,0.3,0.5,0.8,0.5,1.4v0.5h-2.8c0,0.4,0.1,0.7,0.3,1c0.2,0.2,0.5,0.3,0.9,0.3c0.2,0,0.5,0,0.7-0.1
		s0.4-0.1,0.7-0.2v0.8c-0.2,0.1-0.4,0.2-0.7,0.2S-178,410-178.2,410z M-178.4,406.2c-0.3,0-0.5,0.1-0.7,0.3
		c-0.2,0.2-0.3,0.5-0.3,0.8h1.9c0-0.4-0.1-0.6-0.2-0.8S-178.1,406.2-178.4,406.2z"/>
	<path class="st1" d="M-171.8,409.9h-0.9v-2.7c0-0.3-0.1-0.6-0.2-0.8c-0.1-0.2-0.3-0.2-0.6-0.2c-0.4,0-0.7,0.1-0.8,0.3
		c-0.2,0.2-0.3,0.6-0.3,1.2v2.2h-0.9v-4.4h0.7l0.1,0.6h0c0.1-0.2,0.3-0.4,0.5-0.5c0.2-0.1,0.5-0.2,0.8-0.2c1,0,1.5,0.5,1.5,1.6
		V409.9z"/>
	<path class="st1" d="M-168.8,409.3c0.2,0,0.4,0,0.7-0.1v0.7c-0.1,0-0.2,0.1-0.4,0.1c-0.2,0-0.3,0-0.5,0c-0.8,0-1.3-0.5-1.3-1.4
		v-2.3h-0.6v-0.4l0.6-0.3l0.3-0.9h0.5v1h1.2v0.7h-1.2v2.3c0,0.2,0.1,0.4,0.2,0.5C-169.1,409.2-169,409.3-168.8,409.3z"/>
	<path class="st1" d="M-161.5,409.9l-0.6-1.6h-2.1l-0.5,1.6h-1l2.1-5.8h1l2.1,5.8H-161.5z M-162.3,407.5l-0.5-1.6
		c0-0.1-0.1-0.3-0.2-0.5c-0.1-0.2-0.1-0.4-0.1-0.5c-0.1,0.3-0.2,0.7-0.3,1.1l-0.5,1.5H-162.3z"/>
	<path class="st1" d="M-156.8,409.9l-0.1-0.6h0c-0.1,0.2-0.3,0.4-0.5,0.5c-0.2,0.1-0.5,0.2-0.8,0.2c-0.5,0-0.9-0.1-1.1-0.4
		c-0.2-0.3-0.4-0.7-0.4-1.2v-2.8h0.9v2.7c0,0.3,0.1,0.6,0.2,0.7c0.1,0.2,0.3,0.2,0.6,0.2c0.4,0,0.6-0.1,0.8-0.3
		c0.2-0.2,0.3-0.6,0.3-1.2v-2.2h0.9v4.4H-156.8z"/>
	<path class="st1" d="M-153.3,410c-0.5,0-0.9-0.2-1.2-0.6s-0.4-0.9-0.4-1.7c0-0.7,0.1-1.3,0.4-1.7c0.3-0.4,0.7-0.6,1.2-0.6
		c0.5,0,1,0.2,1.3,0.6h0c0-0.3-0.1-0.6-0.1-0.7v-1.6h0.9v6.1h-0.7l-0.2-0.6h0C-152.3,409.8-152.7,410-153.3,410z M-153,409.3
		c0.4,0,0.6-0.1,0.8-0.3c0.2-0.2,0.3-0.6,0.3-1v-0.1c0-0.5-0.1-0.9-0.3-1.2c-0.2-0.2-0.4-0.3-0.8-0.3c-0.3,0-0.6,0.1-0.7,0.4
		c-0.2,0.3-0.3,0.6-0.3,1.1c0,0.5,0.1,0.9,0.2,1.1C-153.6,409.1-153.4,409.3-153,409.3z"/>
	<path class="st1" d="M-149.7,404.4c0-0.2,0-0.3,0.1-0.4c0.1-0.1,0.2-0.1,0.4-0.1c0.2,0,0.3,0,0.4,0.1c0.1,0.1,0.1,0.2,0.1,0.4
		c0,0.2,0,0.3-0.1,0.4c-0.1,0.1-0.2,0.1-0.4,0.1c-0.2,0-0.3,0-0.4-0.1C-149.7,404.7-149.7,404.6-149.7,404.4z M-148.8,409.9h-0.9
		v-4.4h0.9V409.9z"/>
	<path class="st1" d="M-145.8,409.3c0.2,0,0.4,0,0.6-0.1v0.7c-0.1,0-0.2,0.1-0.4,0.1c-0.2,0-0.3,0-0.5,0c-0.8,0-1.3-0.5-1.3-1.4
		v-2.3h-0.6v-0.4l0.6-0.3l0.3-0.9h0.5v1h1.2v0.7h-1.2v2.3c0,0.2,0.1,0.4,0.2,0.5C-146.1,409.2-146,409.3-145.8,409.3z"/>
	<path class="st1" d="M-140.5,407.7c0,0.7-0.2,1.3-0.5,1.7c-0.4,0.4-0.8,0.6-1.5,0.6c-0.4,0-0.7-0.1-1-0.3c-0.3-0.2-0.5-0.4-0.7-0.8
		s-0.2-0.7-0.2-1.2c0-0.7,0.2-1.3,0.5-1.7c0.3-0.4,0.8-0.6,1.5-0.6c0.6,0,1.1,0.2,1.4,0.6C-140.6,406.5-140.5,407-140.5,407.7z
		 M-143.5,407.7c0,1,0.4,1.5,1.1,1.5c0.7,0,1.1-0.5,1.1-1.5c0-1-0.4-1.5-1.1-1.5c-0.4,0-0.6,0.1-0.8,0.4
		C-143.4,406.9-143.5,407.3-143.5,407.7z"/>
	<path class="st1" d="M-137.2,405.5c0.2,0,0.3,0,0.4,0l-0.1,0.9c-0.1,0-0.3,0-0.4,0c-0.4,0-0.6,0.1-0.9,0.4
		c-0.2,0.2-0.3,0.6-0.3,0.9v2.3h-0.9v-4.4h0.7l0.1,0.8h0c0.1-0.3,0.3-0.5,0.5-0.6C-137.7,405.6-137.4,405.5-137.2,405.5z"/>
</g>
</svg>
